<svg width="32" height="32" viewBox="0 0 32 32" fill="none" xmlns="http://www.w3.org/2000/svg">
<g clip-path="url(#clip0_4_93)">
<path d="M24.5703 21.8703C24.5703 23.2456 25.6874 24.3521 27.0521 24.3521H30.2189V19.3831H27.0521C25.6769 19.3885 24.5703 20.5056 24.5703 21.8703Z" fill="#66DFFD"/>
<path d="M25.6771 21.8703C25.6771 22.3603 26.0722 22.7608 26.5676 22.7608H27.3948C27.8848 22.7608 28.2853 22.3655 28.2853 21.8703C28.2853 21.3803 27.8901 20.9798 27.3948 20.9798H26.5675C26.0775 20.9851 25.6771 21.3803 25.6771 21.8703Z" fill="#0F4355"/>
<path d="M22.7896 21.8701C22.7896 19.5201 24.7024 17.6073 27.0524 17.6073H30.2193V13.1285H3.80461C3.06166 13.1285 2.36615 12.9072 1.78125 12.5384V28.188C1.78125 29.3051 2.68754 30.2114 3.80461 30.2114H30.2193V26.1382H27.0524C24.7024 26.1329 22.7896 24.2203 22.7896 21.8701Z" fill="white"/>
<path d="M3.80469 11.3529H26.6679V7.30086H23.3483L24.9079 8.65504C25.477 9.10823 25.2188 10.1831 24.3283 10.2147H5.00075C4.18403 10.2042 3.77829 9.17669 4.41584 8.66026L5.95969 7.30078H3.80461C2.68754 7.30078 1.78125 8.20707 1.78125 9.32414C1.78125 10.4412 2.68232 11.3529 3.80469 11.3529Z" fill="white"/>
<path d="M7.35547 8.4441H21.9354L14.5848 2.06836L7.35547 8.4441Z" fill="#66DFFD"/>
<path d="M31.1095 11.3529H28.4433V6.41559C28.4433 5.92557 28.0482 5.52512 27.5528 5.52512H21.2877L15.1596 0.219006C14.8276 -0.0708375 14.3217 -0.0708375 13.9898 0.224304L7.96703 5.53563H3.8044C1.70719 5.53041 0 7.23761 0 9.33473V28.1986C0 30.2905 1.70719 31.9977 3.8044 31.9977H31.1095C31.5996 31.9977 32 31.6026 32 31.1072V12.2434C31.9947 11.748 31.5996 11.3529 31.1095 11.3529ZM14.5852 2.06851L21.9358 8.44425H7.3558L14.5852 2.06851ZM3.8044 7.30086H5.95948L4.41563 8.66033C3.77807 9.17669 4.18382 10.2042 5.00054 10.2148H24.3175C25.208 10.1832 25.4662 9.11352 24.8971 8.65512L23.3427 7.30094H26.6623V11.353H3.7991C2.68203 11.353 1.77574 10.4467 1.77574 9.3296C1.77574 8.21253 2.68203 7.30086 3.8044 7.30086ZM30.219 24.3573H27.0521C25.6768 24.3573 24.5703 23.2402 24.5703 21.8755C24.5703 20.5002 25.6873 19.3938 27.0521 19.3938H30.219V24.3573ZM30.219 17.6074H27.0521C24.7021 17.6074 22.7893 19.5202 22.7893 21.8702C22.7893 24.2203 24.7021 26.133 27.0521 26.133H30.219V30.2167H3.8044C2.68733 30.2167 1.78104 29.3104 1.78104 28.1933V12.5437C2.36594 12.9178 3.06145 13.1338 3.8044 13.1338H30.219L30.219 17.6074Z" fill="#0F4355"/>
<path d="M27.0525 17.6073H30.2193V13.1285H3.80469C3.06174 13.1285 2.36623 12.9072 1.78133 12.5384V18.6033H6.61322C7.10325 18.6033 7.5037 18.9984 7.5037 19.4938C7.5037 19.9891 7.10855 20.3842 6.61322 20.3842H1.77603V22.7027H4.56875C5.05878 22.7027 5.45923 23.0978 5.45923 23.5931C5.45923 24.0832 5.06408 24.4836 4.56875 24.4836H1.77603V28.1984C1.77603 29.3155 2.68232 30.2218 3.79939 30.2218H30.214V26.1487H27.0472C24.6971 26.1487 22.7844 24.2359 22.7844 21.8859C22.7897 19.5201 24.7024 17.6073 27.0525 17.6073Z" fill="#FFC10D"/>
</g>
<defs>
<clipPath id="clip0_4_93">
<rect width="32" height="32" fill="white"/>
</clipPath>
</defs>
</svg>
